<svg width="32" height="31" viewBox="0 0 32 31" fill="none" xmlns="http://www.w3.org/2000/svg">
<path fill-rule="evenodd" clip-rule="evenodd" d="M7.0327 13.0796C6.66675 13.8504 6.66675 14.7273 6.66675 16.4811V21.9583C6.66675 24.3938 6.66675 25.6116 7.4478 26.3683C8.19354 27.0907 9.37324 27.1234 11.6667 27.1248V20.6667C11.6667 19.3713 12.7416 18.375 14.0001 18.375H18.0001C19.2586 18.375 20.3334 19.3713 20.3334 20.6667V27.1248C22.6269 27.1234 23.8066 27.0907 24.5524 26.3683C25.3334 25.6116 25.3334 24.3938 25.3334 21.9583V16.4811C25.3334 14.7273 25.3334 13.8504 24.9675 13.0796C24.6015 12.3089 23.9143 11.7382 22.5398 10.5968L21.2064 9.4897C18.722 7.42674 17.4798 6.39526 16.0001 6.39526C14.5204 6.39526 13.2782 7.42674 10.7938 9.4897L9.46042 10.5968C8.0859 11.7382 7.39864 12.3089 7.0327 13.0796ZM18.3334 27.1249V20.6667C18.3334 20.5353 18.2143 20.375 18.0001 20.375H14.0001C13.7858 20.375 13.6667 20.5353 13.6667 20.6667V27.1249H18.3334Z" fill="#BDBDBD"/>
</svg>
